<svg xmlns="http://www.w3.org/2000/svg" width="68.398" height="73.047" viewBox="16.602 11.953 68.398 73.047"><path d="M85 26.895v-8.301c0-3.662-2.98-6.64-6.64-6.64H31.542c-4.577 0-8.3 3.723-8.3 8.3v51.465h-4.981a1.66 1.66 0 0 0-1.66 1.66c0 6.408 5.213 11.621 11.62 11.621h38.516c4.86 0 8.301-4.138 8.301-8.656v-47.79h8.3A1.66 1.66 0 0 0 85 26.895ZM28.223 81.68c-4.009 0-7.363-2.857-8.134-6.64h38.349v1.66a8.26 8.26 0 0 0 1.664 4.98h-31.88Zm43.496-63.086v57.75c0 2.75-1.993 5.336-4.98 5.336a4.986 4.986 0 0 1-4.981-4.98v-3.321a1.66 1.66 0 0 0-1.66-1.66H26.563V20.254c0-2.746 2.234-4.997 4.98-4.997h41.064a6.697 6.697 0 0 0-.888 3.337Zm9.96 6.64h-6.64v-6.64a3.32 3.32 0 1 1 6.64 0v6.64Zm0 0" fill="#32325f" fill-rule="evenodd" data-name="Path 94"/></svg>