<svg xmlns="http://www.w3.org/2000/svg" width="85" height="85"><path d="M85 33.546a1.66 1.66 0 0 0-.94-1.506L56.502 18.758a1.661 1.661 0 0 0-1.463.01l-5.898 2.95V1.66A1.66 1.66 0 0 0 47.48 0H37.52a1.66 1.66 0 0 0-1.66 1.66v20.058l-5.899-2.95c-.46-.229-1-.233-1.463-.01L.94 32.04a1.66 1.66 0 0 0 .02 3l11.041 5.136L.961 45.31a1.66 1.66 0 0 0-.021 3l13.337 6.429v15.319c0 .628.356 1.203.918 1.484l26.563 13.281c.015.008.031.013.047.02a1.531 1.531 0 0 0 .202.078l.076.023c.046.012.092.02.139.028.023.004.046.01.07.013.062.008.124.012.187.013l.022.001c.071 0 .142-.006.212-.015.018-.002.035-.006.053-.009.052-.008.104-.019.155-.032l.07-.021a1.69 1.69 0 0 0 .132-.047c.026-.01.05-.02.075-.032.015-.007.03-.012.045-.02l26.562-13.28a1.66 1.66 0 0 0 .918-1.485V54.74l13.337-6.428a1.66 1.66 0 0 0-.02-3l-11.041-5.136 11.04-5.136A1.66 1.66 0 0 0 85 33.546ZM39.18 3.32h6.64v23.575c0 .916.744 1.66 1.66 1.66h1.661L42.5 37.409l-5.917-7.888-.724-.966h1.66a1.66 1.66 0 0 0 1.66-1.66V3.32Zm3.32 48.281L19.65 40.176l15.108-7.555 6.414 8.55a1.66 1.66 0 0 0 2.656 0l6.413-8.55 15.109 7.555L42.5 51.6ZM29.205 22.103l6.263 3.131h-2.929a1.66 1.66 0 0 0-1.328 2.657l1.523 2.03-16.822 8.412L5.54 33.509l23.665-11.406ZM15.912 42.02l22.876 11.438-9.583 4.791L5.54 46.843l10.372-4.824Zm51.49 27.013L44.16 80.653V66.738a1.66 1.66 0 1 0-3.32 0v13.915L17.598 69.032V56.34l10.9 5.253c.463.223 1.003.22 1.463-.01l12.539-6.27 12.539 6.27c.46.23 1 .233 1.463.01l10.9-5.253v12.692ZM55.795 58.248l-9.583-4.791 22.876-11.438 10.373 4.824-23.666 11.405Zm13.293-19.915L52.266 29.92l1.523-2.031a1.66 1.66 0 0 0-1.328-2.656h-2.929l6.262-3.131L79.46 33.509l-10.372 4.824Zm0 0" fill="#32325f" fill-rule="evenodd" data-name="Path 97"/></svg>