<svg xmlns="http://www.w3.org/2000/svg" width="19" height="19" viewBox="1465 80 19 19"><path d="M1479.547 99h-10.094a4.458 4.458 0 0 1-4.453-4.453V84.453a4.458 4.458 0 0 1 4.453-4.453h10.094a4.458 4.458 0 0 1 4.453 4.453v10.094a4.458 4.458 0 0 1-4.453 4.453Zm-10.094-17.516a2.972 2.972 0 0 0-2.969 2.97v10.093a2.972 2.972 0 0 0 2.97 2.969h10.093a2.972 2.972 0 0 0 2.969-2.97V84.454a2.972 2.972 0 0 0-2.97-2.969h-10.093Zm10.28 1.856a.928.928 0 1 0 0 1.855.928.928 0 0 0 0-1.855Zm-5.233 10.984a4.83 4.83 0 0 1-4.824-4.824c.265-6.4 9.384-6.398 9.648 0a4.83 4.83 0 0 1-4.824 4.824Zm0-8.164a3.344 3.344 0 0 0-3.34 3.34c.184 4.43 6.497 4.43 6.68 0a3.344 3.344 0 0 0-3.34-3.34Z" fill="#95989a" fill-rule="evenodd" data-name="instagram"/></svg>