<svg xmlns="http://www.w3.org/2000/svg" width="24.68" height="17.28" viewBox="1417.085 81 24.68 17.28"><g data-name="Mask Group 1" transform="translate(1410 81)" clip-path="url(&quot;#a&quot;)"><path d="M31.256 2.704A3.092 3.092 0 0 0 29.081.528C27.15 0 19.425 0 19.425 0S11.7 0 9.768.508a3.155 3.155 0 0 0-2.175 2.196c-.508 1.931-.508 5.936-.508 5.936s0 4.025.508 5.936a3.092 3.092 0 0 0 2.175 2.175c1.952.53 9.657.53 9.657.53s7.725 0 9.656-.51a3.092 3.092 0 0 0 2.176-2.175c.508-1.93.508-5.936.508-5.936s.02-4.025-.509-5.956ZM16.965 12.34v-7.4l6.424 3.7-6.424 3.7Zm0 0" fill="#95989a" fill-rule="evenodd" data-name="youtube"/></g><defs><clipPath id="a"><path d="M0 0h39v17H0V0z" data-name="Rectangle 5"/></clipPath></defs></svg>